<?xml version="1.0" standalone="no"?>
<!DOCTYPE svg PUBLIC "-//W3C//DTD SVG 1.1//EN" "http://www.w3.org/Graphics/SVG/1.1/DTD/svg11.dtd" >
<svg xmlns="http://www.w3.org/2000/svg">
<metadata>Generated by IcoMoon</metadata>
<defs>
<font id="icomoon" horiz-adv-x="1024">
<font-face units-per-em="1024" ascent="960" descent="-64" />
<missing-glyph horiz-adv-x="1024" />
<glyph unicode="&#x20;" horiz-adv-x="512" d="" />
<glyph unicode="&#xe900;" glyph-name="copy" d="M724.91-63.994h-572.388c-84.095 0-152.523 68.415-152.523 152.51v572.377c0 84.096 68.415 152.523 152.523 152.523h572.377c84.096 0 152.523-68.427 152.523-152.523v-572.377c0-84.096-68.415-152.51-152.51-152.51zM152.522 738.781c-42.948 0-77.876-34.939-77.876-77.889v-572.377c0-42.948 34.939-77.876 77.876-77.876h572.377c42.948 0 77.876 34.928 77.876 77.876v572.377c0 42.948-34.939 77.889-77.876 77.889h-572.377zM1023.999 266.482v524.638c0 93.269-75.606 168.875-168.875 168.875h-555.782c-20.616 0-37.316-16.713-37.316-37.316 0-20.616 16.713-37.316 37.316-37.316h555.782c52.050 0 94.229-42.192 94.229-94.229v-545.661c0-20.616 16.713-37.316 37.318-37.316 20.616 0 37.318 16.713 37.318 37.316v21.012z" />
<glyph unicode="&#xe901;" glyph-name="image" d="M905.842 881.237h-787.684c-65.251 0-118.158-52.907-118.158-118.158v-630.158c0-65.251 52.907-118.158 118.158-118.158h787.684c65.251 0 118.158 52.907 118.158 118.158v630.158c0 65.251-52.907 118.158-118.158 118.158zM118.156 802.445h787.684c21.731 0 39.367-17.636 39.367-39.367v-377.287l-201.615 201.615-197.746-203.207-120.491 120.548-346.567-356.068v614.401c0 21.731 17.636 39.367 39.367 39.367zM725.446 93.552h-590.735l291.443 299.293 299.293-299.293zM945.208 132.919c0-21.731-17.636-39.367-39.367-39.367h-69.291l-236.317 236.317 148.082 144.896 200.818-200.818-3.926-141.028zM236.315 566.185c-0.631-0.018-1.372-0.029-2.117-0.029-43.516 0-78.791 35.276-78.791 78.791s35.276 78.791 78.791 78.791c0.744 0 1.487-0.010 2.226-0.031l-0.109 0.002c43.516 0 78.791-35.276 78.791-78.791s-35.276-78.791-78.791-78.791v0z" />
<glyph unicode="&#xe902;" glyph-name="redo" d="M843.574 493.044c-92.090 80.829-212.707 130.127-345.087 130.127-232.727 0-429.669-151.648-498.487-361.352l118.366-39.038c52.551 159.906 202.698 275.269 380.121 275.269 97.845 0 186.683-36.035 256-94.343l-180.927-180.927h450.44v450.44l-180.426-180.176z" />
<glyph unicode="&#xe903;" glyph-name="undo" d="M525.513 623.171c-132.379 0-252.997-49.299-345.337-130.127l-180.176 180.176v-450.44h450.44l-180.927 180.927c69.317 58.307 158.155 94.343 256 94.343 177.423 0 327.57-115.363 380.121-275.269l118.366 39.038c-68.818 209.704-265.76 361.353-498.487 361.353z" />
<glyph unicode="&#xe904;" glyph-name="view" d="M505.377 128.065c-184.923 0-368.567 129.681-478.753 251.043-16.513 18.154-26.625 42.388-26.625 68.982 0 26.551 10.077 50.747 26.616 68.974l-0.076-0.086c110.271 121.363 293.915 250.958 478.796 250.958l6.911-0.043 6.228 0.043c184.88 0 368.61-129.595 478.881-250.873 35.492-39.373 35.534-98.625 0.085-137.914-110.314-121.405-294.341-251.086-480.075-251.086l-5.844 0.043-6.143-0.043zM517.663 192.052c164.66 0 331.326 118.845 432.383 230.098 6.183 6.843 9.966 15.956 9.966 25.953 0 10.042-3.817 19.192-10.079 26.079l0.028-0.032c-101.015 111.082-267.382 229.842-431.103 229.842l-7.423-0.043h-5.588c-164.319 0-330.814-118.76-431.829-229.927-6.183-6.843-9.966-15.956-9.966-25.953 0-10.042 3.817-19.192 10.079-26.079l-0.028 0.032c100.929-111.125 267.424-229.97 431.957-229.97l5.631 0.043 5.972-0.043zM511.946 256.039c-105.969 0.121-191.841 85.993-191.962 191.951v0.011c0 105.835 86.127 191.962 191.962 191.962s191.962-86.127 191.962-191.962-86.127-191.962-191.962-191.962zM511.989 575.976c-70.658-0.073-127.921-57.321-128.018-127.966v-0.009c0-70.557 57.418-127.975 127.975-127.975s127.975 57.418 127.975 127.975-57.418 127.975-127.932 127.975z" />
<glyph unicode="&#xe905;" glyph-name="save" d="M977.617 959.478h-931.751c-25.476 0-46.124-20.648-46.124-46.124v-931.751c0-25.476 20.648-46.124 46.124-46.124h931.751c25.476 0 46.124 20.648 46.124 46.124v931.751c0 25.476-20.648 46.124-46.124 46.124zM193.465 888.825c0 2.852 0.215 5.656 0.607 8.383h635.34c0.392-2.727 0.607-5.531 0.607-8.383v-354.105c0-28.763-20.648-52.072-46.124-52.072h-544.289c-25.476 0-46.124 23.316-46.124 52.072v354.105zM961.471 38.257c0-22.374-18.143-40.517-40.517-40.517h-818.434c-22.374 0-40.517 18.143-40.517 40.517v818.434c0 22.374 18.143 40.517 40.517 40.517h28.673v-431.008c0-25.312 20.622-45.828 46.053-45.828h668.97c25.44 0 46.053 20.515 46.053 45.828v431.008h28.673c22.374 0 40.517-18.143 40.517-40.517v-818.434zM734.018 574.214c16.718 0 30.269 13.55 30.269 30.269v189.807c0 16.718-13.55 30.269-30.269 30.269s-30.269-13.55-30.269-30.269v-189.808c0-16.718 13.55-30.268 30.269-30.268z" />
<glyph unicode="&#xe906;" glyph-name="single-sel" d="M505.935 949.295c-256.264 0-463.994-207.742-463.994-463.994-0.011-256.273 207.73-464.006 463.994-464.006s463.994 207.73 463.994 463.994c0 256.264-207.742 464.006-463.994 464.006zM505.923 42.109c-244.762 0-443.18 198.406-443.18 443.18 0 244.762 198.418 443.18 443.18 443.18 244.774 0.011 443.192-198.418 443.192-443.18 0-244.774-198.418-443.18-443.192-443.18zM330.732 485.289c0-96.755 78.436-175.189 175.189-175.189s175.189 78.436 175.189 175.189v0c0 96.755-78.436 175.189-175.189 175.189s-175.189-78.436-175.189-175.189v0z" />
<glyph unicode="&#xe907;" glyph-name="map" d="M939.442 386.284v50.352l-13.914-1.598-181.514-31.589v315.1l-50.908-5.813v-305.072l-157.969 48.619c-2.234 0.71-4.801 1.117-7.465 1.117-11.384 0-21.026-7.463-24.301-17.763l-0.050-0.18c-0.712-2.236-1.123-4.81-1.123-7.48 0-11.393 7.484-21.038 17.803-24.288l0.18-0.050 172.937-53.242v-298.976l33.357-8.94 17.551 2.005v303.282l185.196 32.416-0.011 0.283 10.231 1.813zM939.442 386.284l-10.231-1.813 0.011-0.283 10.22 1.904zM914.753 381.491l14.469 2.504v0.193zM939.442 386.091l-10.22-1.904v-0.193l10.22 1.79zM925.528 435.039l13.914 1.598v0.827zM1024.001 401.897v44.393l-84.559-9.654v-50.352l18.695 3.308zM958.137 389.592l-18.695-3.308v-0.193zM930.004 305.668v-2.119l1.099 0.125-0.057 2.187zM1014.563 451.661l-76.356-14.265v-51.327l76.356 13.483zM744.015 48.489l-17.551-2.005 17.551-4.702zM362.201 271.631c0 14.061-11.398 25.46-25.46 25.46s-25.46-11.398-25.46-25.46v-113.814l50.908-13.653v127.467zM362.201 144.164v0zM356.026 145.829l-44.733 11.999v-15.409l33.855 6.322zM150.413 607.568c12.475-24.734 127.196-186.42 162.071-235.39 7.006-9.747 18.314-16.021 31.088-16.021 0.001 0 0.001 0 0.003 0h0.102c12.816 0.034 24.144 6.376 31.045 16.085l0.079 0.118c34.75 49.367 149.041 212.219 160.768 234.823 15.421 29.663 23.896 64.198 23.896 97.249 0 119.31-97.079 216.366-216.366 216.366s-216.366-97.057-216.366-216.366c0-33.028 7.954-65.592 23.669-96.807 0.007-0.017 0.011-0.037 0.011-0.057v0zM343.11 844.408c77.183 0 139.999-62.805 139.999-139.999 0-20.723-5.563-43.339-15.239-61.966-6.662-12.328-64.436-96.173-124.465-181.899-55.111 77.965-117.553 167.634-124.816 181.446-10.265 20.463-15.489 41.458-15.489 62.431 0.011 77.183 62.827 139.988 140.010 139.988zM279.478 704.363c0-35.148 28.495-63.643 63.643-63.643s63.643 28.495 63.643 63.643v0c0 35.148-28.495 63.643-63.643 63.643s-63.643-28.495-63.643-63.643v0zM1024.001 63.31c0-19.318-12.362-34.988-27.624-34.988s-27.624 15.67-27.624 34.988v764.216c0 19.33 12.362 34.988 27.624 34.988s27.624-15.659 27.624-34.988v-764.216zM362.201 108.496c0-3.025-11.387-5.461-25.448-5.461-14.072 0-25.46 2.447-25.46 5.461v119.31c0 3.014 11.387 5.45 25.46 5.45 14.061 0 25.448-2.447 25.448-5.45v-119.31zM743.89 24.752c0-18.82-11.387-34.048-25.448-34.048s-25.46 15.228-25.46 34.048v743.311c0 18.752 11.398 33.991 25.46 33.991s25.448-15.239 25.448-33.991v-743.311zM55.248 63.31c0-19.318-12.362-34.988-27.624-34.988s-27.624 15.67-27.624 34.988v764.216c0 19.33 12.362 34.988 27.624 34.988s27.624-15.659 27.624-34.988v-764.216zM719.212 756.393c-7.161-1.303-15.205 9.79-17.925 24.802-2.731 15.013 0.85 28.235 8.022 29.527l283.714 51.701c7.184 1.303 15.217-9.801 17.936-24.802 2.731-15.013-0.85-28.235-8.033-29.527l-283.714-51.701zM719.212-24.694c-7.161-1.303-15.205 9.778-17.925 24.791-2.731 15.013 0.85 28.224 8.022 29.527l283.714 51.701c7.184 1.292 15.217-9.801 17.936-24.802 2.731-15.013-0.85-28.235-8.033-29.538l-283.714-51.678zM28.055 28.423c-7.161-1.303-15.205 9.778-17.925 24.791-2.731 15.013 0.85 28.224 8.022 29.527l283.714 51.701c7.184 1.292 15.217-9.801 17.936-24.802 2.731-15.013-0.85-28.235-8.033-29.538l-283.714-51.678zM299.816 80.589c-10.333 2.651-15.704 16.758-11.908 31.51 3.784 14.809 15.217 24.644 25.561 22.004l409.618-104.591c10.333-2.685 15.727-16.792 11.931-31.533-3.796-14.82-15.228-24.666-25.607-22.015l-409.595 104.625zM582.68 796.741c-3.456 1.054-2.595 13.732 1.904 28.303 4.498 14.582 10.934 25.527 14.39 24.462l136.351-42.115c3.433-1.065 2.583-13.744-1.915-28.315-4.51-14.571-10.945-25.527-14.401-24.462l-136.328 42.127z" />
<glyph unicode="&#xe908;" glyph-name="multiple-sel" d="M808.111 702.243c-3.659 3.779-8.777 6.124-14.445 6.124s-10.786-2.345-14.439-6.119l-0.005-0.005-298.191-322.662-173.5 178.031c-8.092 8.257-21.241 8.257-29.261 0l-58.398-59.956c-3.754-3.872-6.068-9.159-6.068-14.986s2.315-11.115 6.073-14.992l-0.005 0.005 245.821-252.158c2.002-2.075 4.469-3.685 7.060-4.779 2.788-1.566 6.12-2.489 9.668-2.489 5.656 0 10.764 2.345 14.406 6.117l0.005 0.006 55.477 60.008 1.042 1.053c0.464 0.485 0.857 0.95 1.311 1.455l311.071 336.658c3.698 3.82 5.977 9.034 5.977 14.78s-2.28 10.96-5.982 14.785l0.005-0.005-57.623 59.13zM0 959.995v-1023.99h1024v1023.99h-1024zM999.002-30.616h-973.994v957.242h973.994v-957.242z" />
<glyph unicode="&#xe909;" glyph-name="split" d="M910.221 165.66l-115.881-115.883h-65.423l181.306 181.306v-65.423zM910.221 80.498v-30.72h-30.719l30.72 30.72zM910.221 316.245l-266.465-266.468h-65.423l284.444 284.445h47.446v-17.977zM777.615 334.223l-284.447-284.445h-65.422l284.444 284.445h65.423zM626.971 334.223l-284.443-284.445h-65.422l284.444 284.445h65.423zM476.387 334.223l-284.444-284.445h-65.423l284.445 284.445h65.422zM325.802 334.223l-212.024-212.025v64.796l147.229 147.229h64.853zM175.843 334.223l-62.066-62.067v62.067h62.067zM910.223 762.993l-144.328-144.327h-65.422l209.75 209.75v-65.423zM910.223 677.831v-59.164h-59.166l59.166 59.164zM842.865 846.223l-227.555-227.556h-65.423l227.556 227.556h65.422zM692.281 846.223l-227.556-227.556h-65.422l227.555 227.556h65.423zM541.583 846.223l-227.556-227.556h-65.423l227.556 227.556h65.423zM391.054 846.223l-227.556-227.556h-49.719v15.644l211.912 211.912h65.422zM240.469 846.223l-126.691-126.691v64.796l61.896 61.896h64.853zM0 504.889h1024v-56.889h-1024v56.889z" />
<glyph unicode="&#xe90a;" glyph-name="button" d="M179.074 439.844h-31.543c-52.727 0-95.461 42.743-95.461 95.461v251.659c0 52.727 42.734 95.461 95.452 95.461h728.967c52.718 0 95.452-42.734 95.452-95.452v-251.669c0-52.718-42.734-95.452-95.452-95.452h-240.505c-14.381 0-26.039-11.658-26.039-26.039s11.658-26.039 26.039-26.039h240.487c81.482 0 147.53 66.058 147.53 147.53v251.659c0.009 81.482-66.039 147.53-147.521 147.53h-728.948c-81.482 0-147.53-66.049-147.53-147.53v-251.65c0-81.473 66.049-147.53 147.53-147.53h31.543c14.378 0 26.035 11.656 26.035 26.035s-11.656 26.035-26.035 26.035v0zM312.634 556.088c0 59.1 47.909 107 107 107 59.1 0 107-47.909 107-107v-219.769c0-5.049 4.094-9.143 9.143-9.143v0h228.354c65.646 0 118.858-53.212 118.858-118.858v-155.384c0-50.487-40.933-91.429-91.429-91.429h-419.542c-29.126 0.002-55.36 12.386-73.725 32.174l-0.058 0.064-162.726 175.691c-16.673 17.964-26.903 42.11-26.903 68.646 0 24.448 8.684 46.868 23.135 64.343l-0.136-0.17c17.135 20.725 42.85 33.83 71.625 33.83 21.905 0 42.036-7.594 57.905-20.295l-0.184 0.143 51.676-41.107v281.264zM535.776 272.318c-35.347 0-64.001 28.654-64.001 64.001v0 219.769c0 28.797-23.345 52.142-52.142 52.142s-52.142-23.345-52.142-52.142v0-336.232c0 0 0 0 0-0.001 0-15.654-12.689-28.343-28.343-28.343-6.697 0-12.852 2.322-17.702 6.207l0.056-0.043-94.693 75.32c-6.407 5.13-14.63 8.233-23.578 8.233-11.75 0-22.25-5.35-29.198-13.746l-0.051-0.064c-6.545-7.91-10.516-18.158-10.516-29.334 0-12.129 4.677-23.166 12.325-31.405l-0.026 0.030 162.708-175.691c8.375-9.026 20.302-14.656 33.544-14.656 0 0 0.001 0 0.001 0h419.542c20.198 0 36.572 16.374 36.572 36.572v0 155.384c0 35.347-28.654 64.001-64.001 64.001v0h-228.354zM611.928 543.727c0.43 5.275 0.649 10.578 0.649 15.909 0 106.040-85.962 192.002-192.002 192.002s-192.002-85.962-192.002-192.002c0-5.632 0.247-11.237 0.731-16.796 1.082-14.256 12.916-25.412 27.355-25.412 15.149 0 27.429 12.28 27.429 27.429 0 0.961-0.049 1.911-0.146 2.846l0.010-0.118c-0.331 3.607-0.521 7.8-0.521 12.038 0 0.005 0 0.009 0 0.014v0c0 75.74 61.404 137.144 137.144 137.144s137.144-61.404 137.144-137.144c0-3.831-0.155-7.634-0.466-11.42-0.058-0.672-0.091-1.455-0.091-2.245 0-15.149 12.28-27.429 27.429-27.429 14.359 0 26.141 11.033 27.331 25.084l0.007 0.101z" />
<glyph unicode="&#xe90b;" glyph-name="rect" d="M955.741 806.388v-716.777h-887.482v716.777h887.482zM1024 874.647h-1024v-853.295h1023.885v853.295h0.115z" />
<glyph unicode="&#xe90c;" glyph-name="black" d="M818.996-64h-613.937c-75.357 0-136.441 61.096-136.441 136.43v750.4c0 75.357 61.085 136.441 136.441 136.441h438.721c11.814 2.225 24.359-0.554 33.482-9.688l266.096-266.129c5.924-5.901 9.367-13.298 10.485-20.982 1.041-3.211 1.539-6.654 1.539-10.197v-579.846c0.033-75.323-60.996-136.397-136.32-136.43h-0.066zM682.543 837.822v-151.433h151.444l-151.444 151.433zM887.233 618.174h-238.77c-18.841 0.007-34.112 15.274-34.124 34.112v238.771h-409.28c-37.674 0-68.215-30.541-68.215-68.215v-750.411c0-37.645 30.526-68.182 68.193-68.182h613.926c0.003 0 0.007 0 0.011 0 37.664 0 68.201 30.52 68.226 68.179v545.746h0.033z" />
<glyph unicode="&#xe90d;" glyph-name="carousel" d="M825.544 812.881h-625.512c-28.788 0-52.126-23.337-52.126-52.126v-625.508c0-28.791 23.338-52.129 52.126-52.129h625.512c28.787 0 52.126 23.34 52.126 52.129v625.508c0 28.789-23.34 52.126-52.126 52.126zM200.033 135.247v1.953c0.687-0.666 1.38-1.319 2.082-1.953h-2.082zM825.544 135.247l-202.61 213.726-100.049-86.895-150.136 139.013-150.126-139.013-22.589-25.803v524.48h625.509v-625.509zM660.475 449.501c53.796 0 97.448 43.728 97.448 97.598 0 53.913-43.652 97.619-97.448 97.619-53.823 0-97.451-43.705-97.451-97.619 0-53.875 43.628-97.598 97.451-97.598zM117.177 689.616v52.126h-65.051c-28.789 0-52.126-23.337-52.126-52.126v-480.229c0-28.791 23.337-52.129 52.126-52.129h65.051v52.129h-65.051v480.227h65.051zM906.82 209.054v-52.126h65.053c28.788 0 52.126 23.338 52.126 52.126v480.231c0 28.788-23.338 52.128-52.126 52.128h-65.053v-52.128h65.053v-480.231h-65.053z" />
<glyph unicode="&#xe90e;" glyph-name="delete" d="M402.285 594.286c-21.943 0-36.571-14.629-36.571-36.571v-365.714c0-21.943 14.629-36.571 36.571-36.571s36.571 14.629 36.571 36.571v365.714c0 21.943-14.629 36.571-36.571 36.571zM987.428 813.714h-256v36.571c0 62.171-47.543 109.714-109.714 109.714h-219.429c-62.171 0-109.714-47.543-109.714-109.714v-36.571h-256c-21.943 0-36.571-14.629-36.571-36.571s14.629-36.571 36.571-36.571h73.143v-694.857c0-62.171 47.543-109.714 109.714-109.714h585.143c62.171 0 109.714 47.543 109.714 109.714v694.857h73.143c21.943 0 36.571 14.629 36.571 36.571s-14.629 36.571-36.571 36.571zM365.713 850.286c0 21.943 14.629 36.571 36.571 36.571h219.429c21.943 0 36.571-14.629 36.571-36.571v-36.571h-292.571v36.571zM841.142 45.714c0-21.943-14.629-36.571-36.571-36.571h-585.143c-21.943 0-36.571 14.629-36.571 36.571v694.857h658.286v-694.857zM621.713 594.286c-21.943 0-36.571-14.629-36.571-36.571v-365.714c0-21.943 14.629-36.571 36.571-36.571s36.571 14.629 36.571 36.571v365.714c0 21.943-14.629 36.571-36.571 36.571z" />
<glyph unicode="&#xe90f;" glyph-name="align-top" d="M1024 832v64h-1024v-64h1024zM896 256v512h-320v-512h320zM448 704v-640h-256v640h256zM512 768h-384v-768h384v768z" />
<glyph unicode="&#xe910;" glyph-name="level-up" d="M22.605 591.627l473.343-216.62c5.1-2.301 10.6-3.501 16.102-3.501s11.001 1.2 16.102 3.501l473.244 216.62c14.002 6.401 22.702 20.002 22.602 35.404s-8.801 28.902-22.902 35.204l-473.143 212.919c-4.677 2.132-10.145 3.375-15.902 3.375s-11.225-1.243-16.148-3.475l0.246 0.099-473.244-212.919c-14.101-6.3-22.803-19.802-22.902-35.204s8.601-28.902 22.602-35.404zM1001.195 308.2l-125.711 56.505c-12.601 5.701-27.403 0-33.103-12.501-5.701-12.601 0-27.403 12.501-33.103l103.209-46.304-446.041-204.219-446.041 204.219 103.009 46.405c12.601 5.701 18.201 20.502 12.501 33.103s-20.502 18.201-33.103 12.501l-125.512-56.606c-14.101-6.3-22.803-19.802-22.902-35.204s8.601-29.003 22.602-35.404l473.343-216.62c5.1-2.301 10.6-3.501 16.102-3.501s11.001 1.2 16.102 3.501l473.244 216.62c14.002 6.401 22.702 20.002 22.602 35.404s-8.701 28.902-22.803 35.204z" />
<glyph unicode="&#xe911;" glyph-name="canlender" d="M226.172 909.646h571.668v-30.083h-571.668zM832.862 890.46v-37.983h-35.022v37.983h-571.668v-37.983h-35.046v37.983h-180.011v-286.52h987.886v286.52zM832.862 909.646v-30.083h166.14v-863.102h-973.992v863.102h166.116v30.083h-191.126v-923.292h1024v923.292z" />
<glyph unicode="&#xe912;" glyph-name="movie" d="M383.998 191.999c-0.018 0-0.039 0-0.061 0-4.161 0-8.086 1.003-11.55 2.78l0.143-0.067c-8.653 4.352-14.131 13.211-14.131 22.887v460.799c0 9.678 5.478 18.587 14.131 22.887s19.046 3.379 26.829-2.406l307.199-230.401c6.451-4.812 10.241-12.441 10.241-20.48s-3.79-15.667-10.241-20.48l-307.199-230.4c-4.226-3.194-9.568-5.118-15.358-5.12h-0.001zM409.599 627.199v-358.4l238.952 179.2-238.952 179.2zM998.399 857.6h-972.799c-14.132 0-25.6-11.469-25.6-25.6v-768.001c0-14.131 11.468-25.599 25.6-25.599h972.799c14.132 0 25.6 11.468 25.6 25.599v768.001c0 14.131-11.468 25.599-25.6 25.599zM153.599 396.798h-102.4v102.399h102.4v-102.399zM153.599 550.398h-102.4v102.402h102.4v-102.4zM51.198 345.597h102.4v-102.4h-102.4v102.4zM204.8 806.398h614.399v-716.801h-614.399v716.802zM870.399 499.197h102.4v-102.399h-102.4v102.399zM870.399 550.398v102.402h102.4v-102.4h-102.4zM870.399 345.597h102.4v-102.4h-102.4v102.4zM972.8 703.998h-102.4v102.4h102.4v-102.4zM153.599 806.398v-102.4h-102.4v102.4h102.4zM51.198 191.996h102.4v-102.399h-102.4v102.4zM870.399 89.597v102.4h102.4v-102.4h-102.4z" />
<glyph unicode="&#xe913;" glyph-name="text" d="M760.908-63.999h-497.86v42.378c16.287 6.215 38.426 13.224 60.968 19.245l5.434 1.234c22.37 5.909 46.474 10.713 72.351 14.689v870.401h-188.811l-79.045-209.25h-37.256c-2.994 19.495-5.474 41.748-7.483 66.599-2.008 24.772-3.702 50.136-5.238 76.090-1.535 25.68-2.717 51.2-3.663 75.973-1.025 24.774-1.535 47.105-1.535 66.639h866.463c0-19.535-0.552-41.55-1.535-65.851-1.025-24.38-2.285-49.507-3.819-75.343s-2.954-51.2-4.49-76.090c-1.497-24.852-3.742-47.617-6.774-68.058h-39.227l-78.375 209.25h-187.314v-870.438c25.836-4.924 50.018-9.768 72.311-14.689 22.41-4.845 43.994-11.62 64.906-20.481v-42.301z" />
<glyph unicode="&#xe914;" glyph-name="align-bottom" d="M1024 64v-64h-1024v64h1024zM960 640v-512h-320v512h320zM448 832v-640h-256v640h256zM512 896h-384v-768h384v768z" />
<glyph unicode="&#xe915;" glyph-name="level-down" d="M22.604 591.626l473.344-216.62c5.101-2.301 10.601-3.501 16.102-3.501s11.001 1.2 16.102 3.501l473.245 216.62c14.002 6.401 22.702 20.002 22.602 35.404s-8.801 28.903-22.903 35.203l-473.144 212.92c-4.678 2.132-10.144 3.375-15.901 3.375s-11.225-1.243-16.147-3.475l0.246 0.1-473.245-212.92c-14.101-6.301-22.802-19.802-22.903-35.203s8.6-28.903 22.602-35.404zM512.050 827.447l446.041-200.619-446.041-204.22-446.041 204.22 446.041 200.619zM1001.196 308.199l-229.822 103.41c-13.801 6.2-29.503 6.1-43.204-0.1l-216.020-98.909-216.020 98.909c-13.701 6.301-29.503 6.301-43.204 0.1l-230.022-103.41c-14.101-6.301-22.802-19.802-22.903-35.203s8.6-29.003 22.602-35.404l473.344-216.62c5.101-2.301 10.601-3.501 16.102-3.501s11.001 1.2 16.102 3.501l473.245 216.62c14.002 6.401 22.702 20.002 22.602 35.404 0 15.401-8.701 28.903-22.802 35.203z" />
<glyph unicode="&#xe916;" glyph-name="music" d="M273.92 218.048c-21.236 39.459 2.362 93.324 52.585 120.343 23.482 12.637 48.593 17.187 70.831 14.429v263.68c0 15.279 10.403 28.544 25.228 32.244l265.542 65.78c2.407 0.625 5.171 0.983 8.017 0.983 18.316 0 33.164-14.848 33.164-33.164 0-0.003 0-0.004 0-0.007v0-25.903l-174.813-43.369c-0.559-0.105-1.071-0.326-1.641-0.454l-89.1-22.063v-305.745c0-0.733-0.058-1.408-0.116-2.095-0.768-32.57-23.261-67.142-60.335-87.063-50.211-27.031-108.125-16.966-129.361 22.4zM662.935 571.572l66.397 16.465v-237.405c0-33.024-22.691-68.41-60.393-88.681-50.211-27.020-108.183-16.954-129.373 22.412-21.167 39.389 2.374 93.324 52.596 120.32 23.424 12.591 48.535 17.14 70.784 14.452v152.436h-0.012zM901.783 30.051h-779.555c-67.398 0-122.228 54.831-122.228 122.228v591.442c0 67.398 54.831 122.228 122.228 122.228h779.543c67.398 0 122.228-54.831 122.228-122.228v-591.442c0.012-67.398-54.819-122.228-122.217-122.228zM122.228 819.404c-41.78-0.047-75.636-33.903-75.683-75.679v-591.446c0.047-41.78 33.903-75.636 75.679-75.683h779.548c41.777 0.052 75.631 33.905 75.683 75.677v591.447c-0.052 41.777-33.905 75.631-75.677 75.683h-779.549z" />
<glyph unicode="&#xe917;" glyph-name="align-right" d="M896 960h64v-1024h-64v1024zM320 832h512v-320h-512v320zM768 384v-256h-640v256h640zM832 448h-768v-384h768v384z" />
<glyph unicode="&#xe918;" glyph-name="align-left" d="M64 960h64v-1024h-64v1024zM192 832h512v-320h-512v320zM896 384v-256h-640v256h640zM960 448h-768v-384h768v384z" />
<glyph unicode="&#xe919;" glyph-name="music2" d="M512.183-64c-0.010 0-0.023 0-0.035 0-282.77 0-512 229.23-512 512s229.23 512 512 512c126.831 0 242.89-46.117 332.325-122.495l-0.709 0.59c10.641-9.054 17.347-22.456 17.347-37.425 0-27.086-21.958-49.042-49.042-49.042-12.117 0-23.207 4.394-31.765 11.675l0.070-0.057c-71.837 61.385-165.814 98.739-268.515 98.739-228.909 0-414.477-185.567-414.477-414.477s185.567-414.477 414.477-414.477c228.909 0 414.477 185.567 414.477 414.477 0 43.057-6.566 84.582-18.75 123.625l0.79-2.936-258.682-258.438c-35.296-35.295-84.057-57.126-137.917-57.126-107.722 0-195.048 87.326-195.048 195.048s87.326 195.048 195.048 195.048c89.746 0 165.335-60.614 188.064-143.136l0.321-1.369 189.197 190.903c8.957 9.869 21.834 16.041 36.153 16.041 2.297 0 4.557-0.159 6.769-0.466l-0.256 0.029c16.277-2.234 29.815-12.224 36.931-26.057l0.128-0.274c34.528-67.077 54.769-146.375 54.769-230.4 0-282.654-229.041-511.811-511.65-512h-0.018zM512.183 545.523c-0.023 0-0.050 0-0.077 0-53.861 0-97.523-43.663-97.523-97.523 0-26.95 10.931-51.346 28.601-68.998l0.001-0.001c17.906-17.105 42.223-27.632 68.998-27.632s51.091 10.527 69.037 27.669l-0.039-0.037 2.438 2.438 1.219 1.706c15.323 17.151 24.689 39.909 24.689 64.854 0 53.798-43.56 97.422-97.334 97.523h-0.010z" />
<glyph unicode="&#xe91a;" glyph-name="x-center" d="M480 960h64v-512h-64v512zM480 64h64v-128h-64v128zM256 832h512v-320h-512v320zM832 384v-256h-640v256h640zM896 448h-768v-384h768v384z" />
<glyph unicode="&#xe91b;" glyph-name="fill" d="M92.16 867.84v-184.32h-92.16v276.48h281.6v-92.16h-189.44zM931.84 867.84h-184.32v92.16h276.48v-281.6h-92.16v189.44zM931.84 28.16v184.32h92.16v-276.48h-281.6v92.16h189.44zM92.16 28.16h184.32v-92.16h-276.48v281.6h92.16v-189.44zM204.8 755.2h614.4v-614.4h-614.4v614.4z" />
<glyph unicode="&#xe91c;" glyph-name="y-center" d="M0 480h128v-64h-128v64zM512 480h512v-64h-512v64zM576 672h320v-448h-320v448zM448 768v-640h-256v640h256zM512 832h-384v-768h384v768z" />
</font>
</defs>
</svg>
